<svg xmlns="http://www.w3.org/2000/svg" viewBox="0 0 1655.64 382.53"><defs><style>.cls-1{fill:#22c4bf;}.cls-2{fill:#523de8;}.cls-3{fill:none;}</style></defs><title>fluthut-logovector</title><g id="Layer_2" data-name="Layer 2"><g id="Layer_1-2" data-name="Layer 1"><path class="cls-1" d="M118.2,76.51l38.25,38.25L41.69,229.52h0a54.1,54.1,0,0,1,0-76.51Z"/><path class="cls-1" d="M156.45,191.27l5.14,5.14a46.82,46.82,0,0,1,0,66.22l-5.14,5.14L233,344.28,194.7,382.53l-78.3-78.3a51.57,51.57,0,0,1,0-72.92Z"/><path class="cls-1" d="M347.71,153h0a54.1,54.1,0,0,1,0,76.51L271.21,306,233,267.77Z"/><path class="cls-1" d="M194.7,0l79.88,79.88a49.32,49.32,0,0,1,0,69.76L233,191.27l-5.15-5.15a46.84,46.84,0,0,1,0-66.22l5.15-5.14L156.45,38.25Z"/><path class="cls-2" d="M92.35,76.51l38.25,38.25L15.84,229.52h0a54.11,54.11,0,0,1,0-76.51Z"/><path class="cls-2" d="M130.6,191.27l9.83,9.82a40.21,40.21,0,0,1,0,56.86l-9.83,9.82,76.51,76.51-38.25,38.25-78.3-78.3a51.56,51.56,0,0,1,0-72.92Z"/><path class="cls-2" d="M321.87,153l4.68,4.68a47.49,47.49,0,0,1,0,67.15L245.36,306l-38.25-38.25Z"/><path class="cls-2" d="M168.86,0l84.56,84.56a42.71,42.71,0,0,1,0,60.4l-46.31,46.31L202,186.12a46.82,46.82,0,0,1,0-66.22l5.14-5.14L130.6,38.25Z"/><polygon class="cls-3" points="283.62 114.76 321.87 153.01 207.11 267.77 245.36 306.02 207.11 344.28 130.6 267.77 168.86 229.52 130.6 191.26 54.1 267.77 15.85 229.52 130.6 114.76 92.35 76.51 130.6 38.25 207.11 114.76 168.86 153.01 207.11 191.26 283.62 114.76"/><path class="cls-2" d="M616.91,98.14V47.78H451.23V347.09h60.43V225h93.95V174.82H511.66V98.14Z"/><path class="cls-2" d="M651.24,47.78V347.09h58.38V47.78Z"/><path class="cls-2" d="M861.74,124.66V285.42q-8.84,17.26-28.78,17.26-21.16,0-21.58-32.48V124.66H753.2v144.1q0,40.31,15.83,61.37t46.46,21.07q30.42,0,48.51-24.47l1.65,20.36h54.68V124.66Z"/><path class="cls-2" d="M1047,301.86q-10.29,0-13.88-4.94t-3.6-18.12V168.24h29.81V124.66h-29.81V70H971.31v54.68h-25.7v43.58h25.7V286.57q.62,64.64,56.94,64.63a90.64,90.64,0,0,0,32.07-5.55l.41-45.23A54.27,54.27,0,0,1,1047,301.86Z"/><path class="cls-2" d="M1243.69,47.78V168.86h-89.22V47.78H1094V347.09h60.44V219h89.22V347.09h60.23V47.78Z"/><path class="cls-2" d="M1456.65,124.66V285.42q-8.84,17.26-28.78,17.26-21.16,0-21.58-32.48V124.66h-58.18v144.1q0,40.31,15.83,61.37t46.46,21.07q30.42,0,48.51-24.47l1.65,20.36h54.68V124.66Z"/><path class="cls-2" d="M1641.87,301.86q-10.29,0-13.88-4.94t-3.6-18.12V168.24h29.81V124.66h-29.81V70h-58.17v54.68h-25.7v43.58h25.7V286.57q.62,64.64,56.94,64.63a90.64,90.64,0,0,0,32.07-5.55l.41-45.23A54.38,54.38,0,0,1,1641.87,301.86Z"/></g></g></svg>