<svg xmlns="http://www.w3.org/2000/svg" viewBox="0 0 882.54 928.6"><defs><style>.cls-1{fill:#22c4bf;}.cls-2{fill:#523de8;}.cls-3{fill:none;}</style></defs><title>fluthut-iconvector</title><g id="Layer_2" data-name="Layer 2"><g id="Layer_1-2" data-name="Layer 1"><path class="cls-1" d="M286.92,185.72l92.86,92.86L101.2,557.16h0a131.33,131.33,0,0,1,0-185.72Z"/><path class="cls-1" d="M379.78,464.3l12.48,12.48a113.67,113.67,0,0,1,0,160.75L379.78,650,565.5,835.74,472.64,928.6,282.57,738.52a125.16,125.16,0,0,1,0-177Z"/><path class="cls-1" d="M844.08,371.44h0a131.33,131.33,0,0,1,0,185.72L658.36,742.88,565.5,650Z"/><path class="cls-1" d="M472.64,0,666.55,193.91a119.74,119.74,0,0,1,0,169.34L565.5,464.3,553,451.81a113.67,113.67,0,0,1,0-160.75l12.48-12.48L379.78,92.86Z"/><path class="cls-2" d="M224.18,185.72,317,278.58,38.46,557.16h0a131.33,131.33,0,0,1,0-185.72Z"/><path class="cls-2" d="M317,464.3l23.85,23.85a97.6,97.6,0,0,1,0,138L317,650,502.76,835.74,409.9,928.6,219.83,738.52a125.16,125.16,0,0,1,0-177Z"/><path class="cls-2" d="M781.34,371.44l11.37,11.36a115.27,115.27,0,0,1,0,163L595.62,742.88,502.76,650Z"/><path class="cls-2" d="M409.9,0,615.18,205.27a103.68,103.68,0,0,1,0,146.61L502.76,464.3l-12.48-12.49a113.67,113.67,0,0,1,0-160.75l12.48-12.48L317,92.86Z"/><polygon class="cls-3" points="688.48 278.58 781.34 371.44 502.76 650.02 595.62 742.88 502.76 835.74 317.04 650.02 409.9 557.16 317.04 464.3 131.32 650.02 38.46 557.16 317.04 278.58 224.18 185.72 317.04 92.86 502.76 278.58 409.9 371.44 502.76 464.3 688.48 278.58"/></g></g></svg>